<?xml version="1.0" encoding="UTF-8"?>
<svg xmlns="http://www.w3.org/2000/svg" viewBox="0 0 200 200" width="100%" height="100%">
  <defs>
    <filter id="glow-red" x="-20%" y="-20%" width="140%" height="140%">
      <feGaussianBlur stdDeviation="3" result="blur" />
      <feComposite in="SourceGraphic" in2="blur" operator="over" />
    </filter>
    <linearGradient id="flame-grad" x1="0" y1="0" x2="0" y2="1">
      <stop offset="0%" stop-color="#f87171"/>
      <stop offset="50%" stop-color="#ef4444"/>
      <stop offset="100%" stop-color="#b91c1c"/>
    </linearGradient>
    <linearGradient id="gold-grad" x1="0" y1="0" x2="1" y2="1">
      <stop offset="0%" stop-color="#fef08a"/>
      <stop offset="50%" stop-color="#eab308"/>
      <stop offset="100%" stop-color="#ca8a04"/>
    </linearGradient>
  </defs>
  <circle cx="100" cy="100" r="90" fill="#fff7ed" stroke="#f97316" stroke-width="3" opacity="0.4"/>
  <g transform="translate(100, 100)" filter="url(#glow-red)">
    <path d="M 0 -60 Q 30 -30 0 0 Q -30 -30 0 -60 Z" fill="url(#flame-grad)"/>
    <path d="M 60 0 Q 30 30 0 0 Q 30 -30 60 0 Z" fill="url(#flame-grad)"/>
    <path d="M 0 60 Q -30 30 0 0 Q 30 30 0 60 Z" fill="url(#flame-grad)"/>
    <path d="M -60 0 Q -30 -30 0 0 Q -30 30 -60 0 Z" fill="url(#flame-grad)"/>
    <circle cx="0" cy="0" r="25" fill="url(#gold-grad)" stroke="#ca8a04" stroke-width="3"/>
    <circle cx="0" cy="0" r="10" fill="#ffffff"/>
  </g>
</svg>
