<?xml version="1.0" encoding="UTF-8"?>
<svg xmlns="http://www.w3.org/2000/svg" viewBox="0 0 240 240" width="100%" height="100%">
  <defs>
    <filter id="ink-shadow" x="-10%" y="-10%" width="130%" height="130%">
      <feDropShadow dx="0" dy="5" stdDeviation="4" flood-color="#1c1917" flood-opacity="0.18" />
    </filter>
    <filter id="glow-gold" x="-20%" y="-20%" width="140%" height="140%">
      <feGaussianBlur stdDeviation="3" result="blur" />
      <feComposite in="SourceGraphic" in2="blur" operator="over" />
    </filter>
    <linearGradient id="gold-grad" x1="0" y1="0" x2="1" y2="1">
      <stop offset="0%" stop-color="#fef08a"/>
      <stop offset="50%" stop-color="#eab308"/>
      <stop offset="100%" stop-color="#ca8a04"/>
    </linearGradient>
    <linearGradient id="skin-grad" x1="0" y1="0" x2="0" y2="1">
      <stop offset="0%" stop-color="#fff1f2"/>
      <stop offset="100%" stop-color="#fed7aa"/>
    </linearGradient>
    <radialGradient id="blush-grad" cx="50%" cy="50%" r="50%">
      <stop offset="0%" stop-color="#fb7185" stop-opacity="0.45"/>
      <stop offset="100%" stop-color="#fb7185" stop-opacity="0"/>
    </radialGradient>
  </defs>
  <g id="yang-jian-idle">
    <path d="M 80 150 C 50 180 60 225 70 230 C 120 235 170 235 210 215 C 200 170 160 150 160 150 Z" fill="#0284c7" opacity="0.9" filter="url(#ink-shadow)"/>

    <path d="M 90 148 L 78 212 C 78 218 162 218 162 212 L 150 148 Z" fill="#e2e8f0" stroke="#1e293b" stroke-width="4.5" stroke-linejoin="round" filter="url(#ink-shadow)"/>
    <circle cx="120" cy="175" r="11" fill="url(#gold-grad)" stroke="#ca8a04" stroke-width="2.5"/>
    <circle cx="120" cy="175" r="5" fill="#f8fafc"/>
    <path d="M 86 188 Q 120 196 154 188" stroke="#ca8a04" stroke-width="4" fill="none"/>

    <ellipse cx="96" cy="214" rx="9" ry="5" fill="#334155" stroke="#1e293b" stroke-width="2"/>
    <ellipse cx="144" cy="214" rx="9" ry="5" fill="#334155" stroke="#1e293b" stroke-width="2"/>

    <!-- Right hand holding Three-pointed blade -->
    <path d="M 152 155 Q 175 165 180 145" stroke="#1e293b" stroke-width="5" fill="none" stroke-linecap="round"/>
    <circle cx="180" cy="145" r="7" fill="#fed7aa" stroke="#1e293b" stroke-width="2.5"/>
    <path d="M 180 215 L 180 60" stroke="#475569" stroke-width="4.5" stroke-linecap="round"/>
    <path d="M 180 60 L 180 30 L 175 45 L 168 52 L 176 56 Z" fill="#e2e8f0" stroke="#0284c7" stroke-width="2"/>
    <path d="M 180 60 L 180 30 L 185 45 L 192 52 L 184 56 Z" fill="#e2e8f0" stroke="#0284c7" stroke-width="2"/>
    <circle cx="180" cy="58" r="4" fill="#ca8a04"/>

    <!-- Left arm on waist -->
    <path d="M 88 155 Q 70 162 68 150" stroke="#1e293b" stroke-width="5" fill="none" stroke-linecap="round"/>
    <circle cx="68" cy="150" r="7" fill="#fed7aa" stroke="#1e293b" stroke-width="2.5"/>

    <!-- Cute Chibi Xiaotian Dog sitting -->
    <g id="xiaotian-dog" transform="translate(42, 175)">
      <ellipse cx="15" cy="20" rx="12" ry="10" fill="#1c1917" stroke="#475569" stroke-width="2"/>
      <circle cx="15" cy="5" r="10" fill="#1c1917" stroke="#475569" stroke-width="2"/>
      <ellipse cx="5" cy="5" rx="3.5" ry="7" fill="#334155" transform="rotate(20 5 5)"/>
      <ellipse cx="25" cy="5" rx="3.5" ry="7" fill="#334155" transform="rotate(-20 25 5)"/>
      <circle cx="12" cy="4" r="2.5" fill="#fef08a"/>
      <circle cx="18" cy="4" r="2.5" fill="#fef08a"/>
      <circle cx="12" cy="3.5" r="1" fill="#ffffff"/>
      <circle cx="18" cy="3.5" r="1" fill="#ffffff"/>
      <circle cx="15" cy="8" r="1.5" fill="#f43f5e"/>
      <path d="M 2 18 Q -5 12 0 8" stroke="#1c1917" stroke-width="3" stroke-linecap="round" fill="none"/>
      <rect x="9" y="11" width="12" height="3" fill="#ef4444" rx="1.5"/>
    </g>

    <!-- Huge Chibi Head -->
    <ellipse cx="120" cy="100" rx="45" ry="42" fill="url(#skin-grad)" stroke="#1e293b" stroke-width="4.5" filter="url(#ink-shadow)"/>

    <ellipse cx="88" cy="108" rx="8" ry="4.5" fill="url(#blush-grad)"/>
    <ellipse cx="152" cy="108" rx="8" ry="4.5" fill="url(#blush-grad)"/>

    <!-- Third Eye -->
    <g transform="translate(120, 76)">
      <path d="M 0 -7 Q 6 0 0 7 Q -6 0 0 -7 Z" fill="#0284c7" stroke="#ca8a04" stroke-width="2" filter="url(#glow-gold)"/>
      <circle cx="0" cy="0" r="2.5" fill="#fef08a"/>
    </g>

    <!-- Facial Features -->
    <path d="M 94 90 L 110 93" stroke="#1e293b" stroke-width="4" stroke-linecap="round"/>
    <path d="M 146 90 L 130 93" stroke="#1e293b" stroke-width="4" stroke-linecap="round"/>
    <polygon points="96,98 108,94 108,102" fill="#1e293b"/>
    <circle cx="103" cy="98" r="4.5" fill="#0284c7"/>
    <circle cx="102" cy="96" r="1.5" fill="#ffffff"/>
    <polygon points="144,98 132,94 132,102" fill="#1e293b"/>
    <circle cx="137" cy="98" r="4.5" fill="#0284c7"/>
    <circle cx="136" cy="96" r="1.5" fill="#ffffff"/>
    <ellipse cx="120" cy="105" rx="2" ry="1.5" fill="#ea580c"/>
    <path d="M 115 116 L 125 116" stroke="#1e293b" stroke-width="3" stroke-linecap="round"/>

    <!-- Silver Warrior Crown & Black Hair -->
    <path d="M 74 95 C 72 65 95 56 120 56 C 145 56 168 65 166 95 C 155 76 138 72 120 72 C 102 72 85 76 74 95 Z" fill="#1e293b"/>
    <polygon points="120,38 126,56 114,56" fill="url(#gold-grad)" stroke="#ca8a04" stroke-width="2"/>
    <polygon points="105,44 114,58 102,58" fill="#e2e8f0" stroke="#64748b" stroke-width="2"/>
    <polygon points="135,44 138,58 126,58" fill="#e2e8f0" stroke="#64748b" stroke-width="2"/>
    <circle cx="120" cy="56" r="5" fill="#0284c7" stroke="#ffffff" stroke-width="1.5"/>
  </g>
</svg>
