<?xml version="1.0" encoding="UTF-8"?>
<svg xmlns="http://www.w3.org/2000/svg" viewBox="0 0 240 240" width="100%" height="100%">
  <defs>
    <filter id="ink-shadow" x="-10%" y="-10%" width="130%" height="130%">
      <feDropShadow dx="0" dy="5" stdDeviation="4" flood-color="#1c1917" flood-opacity="0.18" />
    </filter>
    <filter id="glow-gold" x="-20%" y="-20%" width="140%" height="140%">
      <feGaussianBlur stdDeviation="3" result="blur" />
      <feComposite in="SourceGraphic" in2="blur" operator="over" />
    </filter>
    <radialGradient id="halo-gold" cx="50%" cy="50%" r="50%">
      <stop offset="0%" stop-color="#fef08a" stop-opacity="0.6"/>
      <stop offset="70%" stop-color="#eab308" stop-opacity="0.2"/>
      <stop offset="100%" stop-color="#ca8a04" stop-opacity="0"/>
    </radialGradient>
    <linearGradient id="gold-grad" x1="0" y1="0" x2="1" y2="1">
      <stop offset="0%" stop-color="#fef08a"/>
      <stop offset="50%" stop-color="#eab308"/>
      <stop offset="100%" stop-color="#ca8a04"/>
    </linearGradient>
    <linearGradient id="skin-grad" x1="0" y1="0" x2="0" y2="1">
      <stop offset="0%" stop-color="#fff1f2"/>
      <stop offset="100%" stop-color="#fed7aa"/>
    </linearGradient>
    <radialGradient id="blush-grad" cx="50%" cy="50%" r="50%">
      <stop offset="0%" stop-color="#fb7185" stop-opacity="0.45"/>
      <stop offset="100%" stop-color="#fb7185" stop-opacity="0"/>
    </radialGradient>
  </defs>
  <circle cx="120" cy="120" r="105" fill="url(#halo-gold)"/>
  <g fill="#38bdf8" filter="url(#glow-gold)">
    <polygon points="120,15 124,25 135,25 126,32 129,42 120,36 111,42 114,32 105,25 116,25" />
    <polygon points="45,45 48,52 56,52 50,57 52,64 45,60 38,64 40,57 34,52 42,52" />
    <polygon points="200,45 203,52 211,52 205,57 207,64 200,60 193,64 195,57 189,52 197,52" />
  </g>
  <g id="yang-jian-victory">
    <path d="M 80 150 C 50 180 60 225 70 230 C 120 235 170 235 210 215 C 200 170 160 150 160 150 Z" fill="#0284c7" opacity="0.9" filter="url(#ink-shadow)"/>

    <path d="M 90 148 L 78 212 C 78 218 162 218 162 212 L 150 148 Z" fill="#e2e8f0" stroke="#1e293b" stroke-width="4.5" stroke-linejoin="round" filter="url(#ink-shadow)"/>
    <circle cx="120" cy="175" r="11" fill="url(#gold-grad)" stroke="#ca8a04" stroke-width="2.5"/>
    <circle cx="120" cy="175" r="5" fill="#f8fafc"/>
    <path d="M 86 188 Q 120 196 154 188" stroke="#ca8a04" stroke-width="4" fill="none"/>

    <ellipse cx="96" cy="214" rx="9" ry="5" fill="#334155" stroke="#1e293b" stroke-width="2"/>
    <ellipse cx="144" cy="214" rx="9" ry="5" fill="#334155" stroke="#1e293b" stroke-width="2"/>

    <!-- Spear held high in victory & howling dog -->
    <path d="M 152 155 Q 180 130 185 105" stroke="#1e293b" stroke-width="5" fill="none" stroke-linecap="round"/>
    <circle cx="185" cy="105" r="7" fill="#fed7aa" stroke="#1e293b" stroke-width="2.5"/>
    <path d="M 185 170 L 185 30" stroke="#475569" stroke-width="4.5" stroke-linecap="round"/>
    <path d="M 185 30 L 185 0 L 178 18 L 170 26 L 180 30 Z" fill="#e2e8f0" stroke="#0284c7" stroke-width="2" filter="url(#glow-gold)"/>
    <path d="M 185 30 L 185 0 L 192 18 L 200 26 L 190 30 Z" fill="#e2e8f0" stroke="#0284c7" stroke-width="2" filter="url(#glow-gold)"/>

    <path d="M 88 155 Q 60 135 55 110" stroke="#1e293b" stroke-width="5" fill="none" stroke-linecap="round"/>
    <circle cx="55" cy="110" r="7" fill="#fed7aa" stroke="#1e293b" stroke-width="2.5"/>

    <g id="xiaotian-dog" transform="translate(38, 170)">
      <ellipse cx="15" cy="22" rx="12" ry="10" fill="#1c1917" stroke="#475569" stroke-width="2"/>
      <path d="M 10 12 L 18 2 L 25 10 Z" fill="#1c1917"/>
      <ellipse cx="18" cy="2" rx="4" ry="3" fill="#f43f5e"/>
      <path d="M 2 20 Q -8 15 -2 8" stroke="#1c1917" stroke-width="3" stroke-linecap="round" fill="none"/>
    </g>

    <!-- Huge Chibi Head -->
    <ellipse cx="120" cy="100" rx="45" ry="42" fill="url(#skin-grad)" stroke="#1e293b" stroke-width="4.5" filter="url(#ink-shadow)"/>

    <ellipse cx="88" cy="108" rx="8" ry="4.5" fill="url(#blush-grad)"/>
    <ellipse cx="152" cy="108" rx="8" ry="4.5" fill="url(#blush-grad)"/>

    <!-- Radiant Third Eye -->
    <g transform="translate(120, 76)">
      <path d="M 0 -8 Q 8 0 0 8 Q -8 0 0 -8 Z" fill="#38bdf8" stroke="#fef08a" stroke-width="2.5" filter="url(#glow-gold)"/>
      <circle cx="0" cy="0" r="3" fill="#ffffff"/>
    </g>

    <!-- Facial Features -->
    <path d="M 92 84 L 110 88" stroke="#1e293b" stroke-width="4" stroke-linecap="round"/>
    <path d="M 148 84 L 130 88" stroke="#1e293b" stroke-width="4" stroke-linecap="round"/>
    <path d="M 95 98 Q 102 90 109 98" stroke="#1e293b" stroke-width="4.5" stroke-linecap="round" fill="none"/>
    <path d="M 131 98 Q 138 90 145 98" stroke="#1e293b" stroke-width="4.5" stroke-linecap="round" fill="none"/>
    <ellipse cx="120" cy="105" rx="2" ry="1.5" fill="#ea580c"/>
    <path d="M 112 112 Q 120 125 128 112 Z" fill="#0284c7" stroke="#1e293b" stroke-width="3"/>

    <!-- Crown & Hair -->
    <path d="M 74 95 C 72 65 95 56 120 56 C 145 56 168 65 166 95 C 155 76 138 72 120 72 C 102 72 85 76 74 95 Z" fill="#1e293b"/>
    <polygon points="120,38 126,56 114,56" fill="url(#gold-grad)" stroke="#ca8a04" stroke-width="2"/>
    <polygon points="105,44 114,58 102,58" fill="#e2e8f0" stroke="#64748b" stroke-width="2"/>
    <polygon points="135,44 138,58 126,58" fill="#e2e8f0" stroke="#64748b" stroke-width="2"/>
    <circle cx="120" cy="56" r="5" fill="#0284c7" stroke="#ffffff" stroke-width="1.5"/>
  </g>
</svg>
