<?xml version="1.0" encoding="UTF-8"?>
<svg xmlns="http://www.w3.org/2000/svg" viewBox="0 0 240 240" width="100%" height="100%">
  <defs>
    <filter id="ink-shadow" x="-10%" y="-10%" width="130%" height="130%">
      <feDropShadow dx="0" dy="5" stdDeviation="4" flood-color="#1c1917" flood-opacity="0.18" />
    </filter>
    <linearGradient id="cyan-grad" x1="0" y1="0" x2="1" y2="1">
      <stop offset="0%" stop-color="#a5f3fc"/>
      <stop offset="60%" stop-color="#06b6d4"/>
      <stop offset="100%" stop-color="#0891b2"/>
    </linearGradient>
    <linearGradient id="gold-grad" x1="0" y1="0" x2="1" y2="1">
      <stop offset="0%" stop-color="#fef08a"/>
      <stop offset="50%" stop-color="#eab308"/>
      <stop offset="100%" stop-color="#ca8a04"/>
    </linearGradient>
    <radialGradient id="blush-grad" cx="50%" cy="50%" r="50%">
      <stop offset="0%" stop-color="#fb7185" stop-opacity="0.45"/>
      <stop offset="100%" stop-color="#fb7185" stop-opacity="0"/>
    </radialGradient>
  </defs>
  <g id="lei-zhenzi-thinking">
    <g id="thunder-wings">
      <path d="M 80 140 C 20 110 5 60 25 35 C 45 65 60 95 85 120 Z" fill="url(#cyan-grad)" stroke="#0e7490" stroke-width="3" filter="url(#ink-shadow)"/>
      <path d="M 35 45 C 50 80 65 110 85 135" stroke="#ffffff" stroke-width="2" fill="none"/>
      <path d="M 160 140 C 220 110 235 60 215 35 C 195 65 180 95 155 120 Z" fill="url(#cyan-grad)" stroke="#0e7490" stroke-width="3" filter="url(#ink-shadow)"/>
      <path d="M 205 45 C 190 80 175 110 155 135" stroke="#ffffff" stroke-width="2" fill="none"/>
    </g>

    <path d="M 90 148 L 76 215 C 76 220 164 220 164 215 L 150 148 Z" fill="#0f766e" stroke="#1c1917" stroke-width="4.5" stroke-linejoin="round" filter="url(#ink-shadow)"/>
    <circle cx="120" cy="180" r="8" fill="url(#gold-grad)" stroke="#ca8a04" stroke-width="2"/>
    <path d="M 88 185 Q 120 195 152 185" stroke="#facc15" stroke-width="4" fill="none"/>

    <ellipse cx="96" cy="216" rx="9" ry="5" fill="#ca8a04" stroke="#1c1917" stroke-width="2"/>
    <ellipse cx="144" cy="216" rx="9" ry="5" fill="#ca8a04" stroke="#1c1917" stroke-width="2"/>

    <!-- Hand on chin -->
    <path d="M 88 155 Q 92 140 108 128" stroke="#1c1917" stroke-width="5" fill="none" stroke-linecap="round"/>
    <circle cx="108" cy="128" r="7" fill="#a7f3d0" stroke="#1c1917" stroke-width="2.5"/>
    <path d="M 152 155 Q 165 170 162 178" stroke="#1c1917" stroke-width="5" fill="none" stroke-linecap="round"/>
    <circle cx="162" cy="178" r="7" fill="#a7f3d0" stroke="#1c1917" stroke-width="2.5"/>

    <!-- Thought Lightning '雷' -->
    <g transform="translate(170, 30)">
      <circle cx="15" cy="20" r="4" fill="#a7f3d0"/>
      <circle cx="25" cy="10" r="7" fill="#ccfbf1"/>
      <circle cx="42" cy="-2" r="16" fill="#ffffff" stroke="#0d9488" stroke-width="2.5" filter="url(#ink-shadow)"/>
      <text x="42" y="3" font-family="'Noto Serif TC', serif" font-weight="900" font-size="16" fill="#0d9488" text-anchor="middle" dominant-baseline="middle">雷</text>
    </g>

    <!-- Cyan Head -->
    <ellipse cx="120" cy="100" rx="45" ry="42" fill="#a7f3d0" stroke="#047857" stroke-width="4.5" filter="url(#ink-shadow)"/>

    <ellipse cx="88" cy="108" rx="8" ry="4.5" fill="url(#blush-grad)"/>
    <ellipse cx="152" cy="108" rx="8" ry="4.5" fill="url(#blush-grad)"/>

    <!-- Facial Features -->
    <path d="M 94 86 L 110 90" stroke="#047857" stroke-width="4" stroke-linecap="round"/>
    <path d="M 146 90 L 130 86" stroke="#047857" stroke-width="4" stroke-linecap="round"/>
    <circle cx="104" cy="94" r="6" fill="#ca8a04"/>
    <circle cx="104" cy="94" r="3.5" fill="#fef08a"/>
    <circle cx="138" cy="94" r="6" fill="#ca8a04"/>
    <circle cx="138" cy="94" r="3.5" fill="#fef08a"/>
    <polygon points="120,110 125,117 115,117" fill="#f59e0b" stroke="#1c1917" stroke-width="2"/>

    <!-- Spiky Hair -->
    <path d="M 74 95 C 65 60 90 45 120 45 C 150 45 175 60 166 95 C 155 76 138 68 120 68 C 102 68 85 76 74 95 Z" fill="#ef4444" stroke="#b91c1c" stroke-width="2"/>
    <polygon points="120,25 128,50 112,50" fill="#ef4444" stroke="#1c1917" stroke-width="2.5"/>
    <polygon points="100,32 112,54 96,54" fill="#f97316" stroke="#1c1917" stroke-width="2"/>
    <polygon points="140,32 144,54 128,54" fill="#f97316" stroke="#1c1917" stroke-width="2"/>
  </g>
</svg>
